<svg xmlns="http://www.w3.org/2000/svg" width="167" height="34" viewBox="0 0 167 34">
  <g fill="none">
    <path fill="#6236FF" d="M39.5715406,0 L33.5526316,33.5526316 L20.77,33.552 L21.165,31.315 L31.6813446,31.3157895 L36.8977324,2.23684211 L7.89019602,2.23684211 L2.67380822,31.3157895 L18.359,31.315 L17.964,33.552 L-8.52651283e-14,33.5526316 L6.01890901,0 L39.5715406,0 Z"/>
    <path fill="#6236FF" d="M4.83157895,30.2608064 L8.26707833,11.115402 C8.3782601,10.4927841 8.68400537,9.97579667 9.18432332,9.56442414 C9.68464126,9.1530516 10.2461008,8.94736842 10.8687186,8.94736842 L14.9212737,8.94736842 C15.4994189,8.94736842 15.9941704,9.15861061 16.4055429,9.58110132 C16.8280336,10.003592 17.0392758,10.5205795 17.0392758,11.1320792 C17.0392758,11.24882 17.0330219,11.3467979 17.020514,11.4260144 L15.9385818,17.452731 L13.1701697,17.452731 L14.0707375,12.4328994 L14.0707375,12.3328363 C14.0707375,12.1327091 14.0040294,11.9659389 13.8706113,11.8325208 C13.7371932,11.7102209 13.570423,11.6490718 13.3702959,11.6490718 L11.819318,11.6490718 C11.5858363,11.6490718 11.3690351,11.7268979 11.1689079,11.8825524 C10.9798989,12.0270887 10.8631598,12.2105358 10.8186871,12.4328994 L7.76676289,29.3602386 L7.76676289,29.4436245 C7.76676289,29.6326335 7.83347095,29.7994036 7.96688907,29.9439399 C8.10030719,30.0884762 8.26707733,30.1607433 8.46720451,30.1607433 L10.0015052,30.1607433 C10.5796504,30.1607433 10.9187497,29.882793 11.0188133,29.3268842 L12.3863422,22.0222787 L10.8020099,22.0222787 L11.2856482,19.3539297 L15.6383926,19.3539297 L13.570422,30.6777359 C13.4592403,31.3003538 13.147936,31.8229002 12.6364999,32.245391 C12.1361819,32.6567635 11.5691634,32.8624467 10.9354274,32.8624467 L6.949581,32.8624467 C6.36031764,32.8624467 5.8600072,32.6512045 5.44863466,32.2287138 C5.03726213,31.7951049 4.83157895,31.2781174 4.83157895,30.6777359 L4.83157895,30.2608064 Z M15.1213999,32.8624467 L19.4574671,8.94736842 L25.9448907,8.94736842 L25.4779296,11.6490718 L21.8756584,11.6490718 L20.5248067,19.203835 L24.1104007,19.203835 L23.6100853,21.8721841 L20.0411685,21.8721841 L18.073261,32.8624467 L15.1213999,32.8624467 Z"/>
    <path fill="#FFF" d="M44.2631579,23.3531558 L46.5131065,10.8146073 C46.5859207,10.4068476 46.7861569,10.0682665 47.1138209,9.79885382 C47.441485,9.52944116 47.8091914,9.39473684 48.2169511,9.39473684 L50.8710167,9.39473684 C51.2496507,9.39473684 51.5736692,9.53308181 51.8430818,9.8097759 C52.1197759,10.08647 52.2581209,10.4250511 52.2581209,10.8255294 C52.2581209,10.9274693 52.2508396,11.0075638 52.2362767,11.0658152 L51.5372636,14.9649979 L49.7241982,14.9649979 L50.3139905,11.6774517 L50.3139905,11.6119192 C50.3139905,11.4808536 50.2703027,11.3716339 50.1829256,11.2842568 C50.0955485,11.2041611 49.9863288,11.1641139 49.8552632,11.1641139 L48.8395097,11.1641139 C48.6865998,11.1641139 48.5446141,11.2150831 48.4135485,11.317023 C48.2897643,11.4116815 48.2133105,11.5318232 48.1841848,11.6774517 L46.1854441,22.7633635 L46.1854441,22.8179739 C46.1854441,22.9417581 46.229132,23.0509778 46.316509,23.1456363 C46.4038861,23.2402948 46.5131058,23.2876234 46.6441715,23.2876234 L47.6490029,23.2876234 C48.0276369,23.2876234 48.249717,23.1055905 48.3152498,22.7415193 L49.2108604,17.957648 L48.1732627,17.957648 L48.4900031,16.2101151 L51.3406661,16.2101151 L49.9863281,23.6262079 C49.9135139,24.0339676 49.7096371,24.3761893 49.3746916,24.6528834 C49.0470276,24.9222961 48.6756805,25.0570004 48.2606394,25.0570004 L45.6502621,25.0570004 C45.2643467,25.0570004 44.9366875,24.9186554 44.6672749,24.6419613 C44.3978622,24.3579858 44.2631579,24.0194047 44.2631579,23.6262079 L44.2631579,23.3531558 Z M50.6198088,25.0570004 L55.7859529,9.39473684 L57.6645508,9.39473684 L57.1730572,25.0570004 L55.392758,25.0570004 L55.523823,22.4793894 L53.3830952,22.4793894 L52.6185495,25.0570004 L50.6198088,25.0570004 Z M55.6111996,20.7100123 L55.9607062,13.7744912 L53.9073551,20.7100123 L55.6111996,20.7100123 Z M60.952097,9.39473684 L63.2020456,9.39473684 L63.0819028,20.6772461 L66.8609426,9.39473684 L69.4603978,9.39473684 L66.6206569,25.0570004 L64.7311369,25.0570004 L66.4677477,15.2817383 L63.1692794,25.0570004 L61.5746556,25.0570004 L61.6947985,15.1615954 L59.9909539,25.0570004 L58.101434,25.0570004 L60.952097,9.39473684 Z M69.8208265,25.0570004 L67.9313065,25.0570004 L70.7819696,9.39473684 L72.6605674,9.39473684 L69.8208265,25.0570004 Z M71.1314762,25.0570004 L73.9712171,9.39473684 L75.860737,9.39473684 L76.0138957,10.9494774 C76.4797402,15.7824877 76.7126593,19.2507706 76.7126593,21.3544151 L76.7279321,21.0202742 C76.8455509,18.8834828 77.4084034,15.0083377 78.4165039,9.39473684 L80.3060238,9.39473684 L77.4662829,25.0570004 L75.576763,25.0570004 L75.400256,23.2451415 C74.9572585,18.5850408 74.7357627,15.2971197 74.7357627,13.3812963 L74.7268309,13.5688291 C74.6245355,15.4488648 74.0595697,19.27822 73.0319182,25.0570004 L71.1314762,25.0570004 Z M79.0718287,23.3531558 L81.3217773,10.8146073 C81.3945916,10.4068476 81.5948277,10.0682665 81.9224918,9.79885382 C82.2501558,9.52944116 82.6178622,9.39473684 83.0256219,9.39473684 L85.6796875,9.39473684 C86.0583215,9.39473684 86.38234,9.53308181 86.6517527,9.8097759 C86.9284468,10.08647 87.0667917,10.4250511 87.0667917,10.8255294 C87.0667917,10.9274693 87.0595104,11.0075638 87.0449476,11.0658152 L86.3459344,14.9649979 L84.532869,14.9649979 L85.1226614,11.6774517 L85.1226614,11.6119192 C85.1226614,11.4808536 85.0789735,11.3716339 84.9915964,11.2842568 C84.9042193,11.2041611 84.7949996,11.1641139 84.663934,11.1641139 L83.6481805,11.1641139 C83.4952706,11.1641139 83.353285,11.2150831 83.2222194,11.317023 C83.0984352,11.4116815 83.0219814,11.5318232 82.9928557,11.6774517 L80.9941149,22.7633635 L80.9941149,22.8179739 C80.9941149,22.9417581 81.0378028,23.0509778 81.1251799,23.1456363 C81.212557,23.2402948 81.3217767,23.2876234 81.4528423,23.2876234 L82.4576737,23.2876234 C82.8363077,23.2876234 83.0583878,23.1055905 83.1239206,22.7415193 L84.0195312,17.957648 L82.9819336,17.957648 L83.2986739,16.2101151 L86.149337,16.2101151 L84.794999,23.6262079 C84.7221847,24.0339676 84.5183079,24.3761893 84.1833625,24.6528834 C83.8556984,24.9222961 83.4843514,25.0570004 83.0693102,25.0570004 L80.458933,25.0570004 C80.0730175,25.0570004 79.7453584,24.9186554 79.4759457,24.6419613 C79.2065331,24.3579858 79.0718287,24.0194047 79.0718287,23.6262079 L79.0718287,23.3531558 Z M90.9768966,25.0570004 L89.0873766,25.0570004 L91.9380397,9.39473684 L93.8166375,9.39473684 L90.9768966,25.0570004 Z M93.2705335,19.4102847 L95.0835989,19.4102847 L94.4938065,22.7633635 L94.4938065,22.8179739 C94.4938065,22.9417581 94.5374944,23.0509778 94.6248715,23.1456363 C94.7122486,23.2402948 94.8178276,23.2876234 94.9416118,23.2876234 L95.9464433,23.2876234 C96.1066346,23.2876234 96.2522609,23.2366542 96.3833265,23.1347142 C96.5216735,23.0254929 96.6054086,22.8944292 96.6345343,22.7415193 L97.0277292,20.535259 C97.0422921,20.4697262 97.0495734,20.4005537 97.0495734,20.3277395 C97.0495734,20.060754 96.9394435,19.7203522 96.7191807,19.3065254 L95.9253445,17.8352499 L95.9253445,17.8352499 L94.7450144,15.6094007 L94.7450144,15.6094007 C94.4683203,15.0632939 94.3299753,14.5281173 94.3299753,14.0038549 L94.3299753,13.9055561 C94.3299753,13.7817719 94.3408973,13.6543489 94.3627416,13.5232833 L94.832391,10.8146073 C94.9052053,10.4068476 95.1090821,10.0682665 95.4440275,9.79885382 C95.7644102,9.52944116 96.1321166,9.39473684 96.5471577,9.39473684 L99.168457,9.39473684 C99.5470911,9.39473684 99.8747502,9.53308181 100.151444,9.8097759 C100.43542,10.08647 100.577405,10.4286918 100.577405,10.8364515 C100.577405,10.93111 100.570124,11.0075638 100.555561,11.0658152 L99.8674702,14.9103875 L98.0325606,14.9103875 L98.6114309,11.6774517 C98.6259938,11.6556074 98.6332751,11.6264822 98.6332751,11.590075 C98.6332751,11.4808537 98.5859465,11.3789153 98.491288,11.2842568 C98.3966295,11.2041611 98.2874098,11.1641139 98.1636256,11.1641139 L97.1587942,11.1641139 C96.9986029,11.1641139 96.8566173,11.2150831 96.7328331,11.317023 C96.6090489,11.4116815 96.5325951,11.5318232 96.5034694,11.6774517 L96.186729,13.4140625 C96.1648848,13.5451281 96.1539628,13.6798324 96.1539628,13.8181795 C96.1539628,14.3278791 96.321433,14.8557744 96.6563785,15.4018812 L97.28406,16.4348685 C98.1214566,17.8273508 98.5639101,18.6334746 98.6114309,18.8532586 C98.8007479,19.202767 98.895405,19.585036 98.895405,20.0000771 C98.8881236,20.1893941 98.8662797,20.3896302 98.8298725,20.6007915 L98.2728464,23.6262079 C98.2000322,24.0339676 97.999796,24.3761893 97.672132,24.6528834 C97.3444679,24.9222961 96.9694803,25.0570004 96.5471577,25.0570004 L93.9367804,25.0570004 C93.550865,25.0570004 93.2268465,24.9186554 92.9647153,24.6419613 C92.7098654,24.3652673 92.5824424,24.0266861 92.5824424,23.6262079 L92.5824424,23.375 L93.2705335,19.4102847 Z M102.86012,23.6262079 L102.86012,23.3531558 L105.110069,10.8146073 C105.182883,10.4068476 105.383119,10.0682665 105.710783,9.79885382 C106.038447,9.52944116 106.406154,9.39473684 106.813913,9.39473684 L109.467979,9.39473684 C109.846613,9.39473684 110.170632,9.53308181 110.440044,9.8097759 C110.716738,10.08647 110.855083,10.4250511 110.855083,10.8255294 C110.855083,10.9274693 110.847802,11.0075638 110.833239,11.0658152 L108.583291,23.6262079 C108.510476,24.0339676 108.306599,24.3761893 107.971654,24.6528834 C107.64399,24.9222961 107.272643,25.0570004 106.857602,25.0570004 L104.247225,25.0570004 C103.861309,25.0570004 103.53365,24.9186554 103.264237,24.6419613 C102.994825,24.3579858 102.86012,24.0194047 102.86012,23.6262079 Z M104.782406,22.7633635 L104.782406,22.8179739 C104.782406,22.9417581 104.826094,23.0509778 104.913471,23.1456363 C105.000849,23.2402948 105.110068,23.2876234 105.241134,23.2876234 L106.245965,23.2876234 C106.624599,23.2876234 106.846679,23.1055905 106.912212,22.7415193 L108.910953,11.6774517 L108.910953,11.6119192 C108.910953,11.4808536 108.867265,11.3716339 108.779888,11.2842568 C108.692511,11.2041611 108.583291,11.1641139 108.452226,11.1641139 L107.436472,11.1641139 C107.283562,11.1641139 107.141577,11.2150831 107.010511,11.317023 C106.886727,11.4116815 106.810273,11.5318232 106.781147,11.6774517 L104.782406,22.7633635 Z M112.406019,9.39473684 L114.219084,9.39473684 L111.816226,22.7852076 L111.816226,22.8398181 C111.816226,22.9636022 111.856274,23.072822 111.936369,23.1674805 C112.031028,23.262139 112.140247,23.3094675 112.264032,23.3094675 L113.268863,23.3094675 C113.647497,23.3094675 113.869577,23.1274347 113.93511,22.7633635 L116.359812,9.39473684 L118.216566,9.39473684 L115.606188,23.648052 C115.533374,24.0485303 115.333138,24.3834708 115.005474,24.6528834 C114.67781,24.9222961 114.302822,25.0570004 113.8805,25.0570004 L111.248278,25.0570004 C110.876926,25.0570004 110.556548,24.9186554 110.287135,24.6419613 C110.017722,24.3652673 109.883018,24.0339675 109.883018,23.648052 L109.883018,23.375 L112.406019,9.39473684 Z M116.643786,25.0570004 L119.450761,9.39473684 L123.655762,9.39473684 C124.034396,9.39473684 124.362055,9.53308181 124.638749,9.8097759 C124.915443,10.0791886 125.061069,10.4104884 125.075632,10.8036852 L125.031944,11.0658152 L125.031944,11.0658152 L124.158177,16.0025956 C124.034393,16.6870494 123.63028,17.1239283 122.945826,17.3132453 C123.200676,17.4079038 123.393631,17.575374 123.524697,17.815661 C123.626637,18.004978 123.677606,18.2161361 123.677606,18.4491417 C123.677606,18.5001116 123.673965,18.5547215 123.666684,18.6129729 L123.664936,18.7318053 C123.663189,18.7851049 123.660131,18.8292299 123.655762,18.8641807 L122.519865,25.0570004 L120.597579,25.0570004 L121.744398,18.6457391 L121.744398,18.5911287 C121.744398,18.4673445 121.70071,18.3617654 121.613333,18.2743884 C121.525956,18.1870113 121.420377,18.1433234 121.296592,18.1433234 L119.778423,18.1433234 L118.55515,25.0570004 L116.643786,25.0570004 Z M120.117008,16.2756476 L121.635177,16.2756476 C121.795368,16.2756476 121.937354,16.2210378 122.061138,16.1118164 C122.177641,16.0098765 122.250454,15.8824535 122.27958,15.7295436 L123.022281,11.6774517 L123.022281,11.6119192 C123.022281,11.4808536 122.978593,11.3716339 122.891216,11.2842568 C122.796558,11.2041611 122.683697,11.1641139 122.552632,11.1641139 L121.045384,11.1641139 L120.117008,16.2756476 Z M127.096217,25.0570004 L129.935958,9.39473684 L134.184647,9.39473684 L133.878829,11.1641139 L131.51966,11.1641139 L130.634971,16.1118164 L132.983219,16.1118164 L132.655556,17.8593493 L130.318231,17.8593493 L129.029425,25.0570004 L127.096217,25.0570004 Z M135.462531,9.39473684 L137.275596,9.39473684 L134.872738,22.7852076 L134.872738,22.8398181 C134.872738,22.9636022 134.912786,23.072822 134.992881,23.1674805 C135.08754,23.262139 135.19676,23.3094675 135.320544,23.3094675 L136.325375,23.3094675 C136.704009,23.3094675 136.926089,23.1274347 136.991622,22.7633635 L139.416324,9.39473684 L141.273078,9.39473684 L138.6627,23.648052 C138.589886,24.0485303 138.38965,24.3834708 138.061986,24.6528834 C137.734322,24.9222961 137.359334,25.0570004 136.937012,25.0570004 L134.30479,25.0570004 C133.933438,25.0570004 133.61306,24.9186554 133.343647,24.6419613 C133.074235,24.3652673 132.93953,24.0339675 132.93953,23.648052 L132.93953,23.375 L135.462531,9.39473684 Z M140.672363,25.0570004 L143.206286,11.1641139 L141.86287,11.1641139 L142.17961,9.39473684 L146.734118,9.39473684 L146.395534,11.1641139 L145.095806,11.1641139 L142.583727,25.0570004 L140.672363,25.0570004 Z M147.651573,9.39473684 L149.464638,9.39473684 L147.06178,22.7852076 L147.06178,22.8398181 C147.06178,22.9636022 147.101828,23.072822 147.181923,23.1674805 C147.276582,23.262139 147.385802,23.3094675 147.509586,23.3094675 L148.514417,23.3094675 C148.893051,23.3094675 149.115131,23.1274347 149.180664,22.7633635 L151.605366,9.39473684 L153.46212,9.39473684 L150.851742,23.648052 C150.778928,24.0485303 150.578692,24.3834708 150.251028,24.6528834 C149.923364,24.9222961 149.548376,25.0570004 149.126054,25.0570004 L146.493832,25.0570004 C146.12248,25.0570004 145.802102,24.9186554 145.532689,24.6419613 C145.263276,24.3652673 145.128572,24.0339675 145.128572,23.648052 L145.128572,23.375 L147.651573,9.39473684 Z M151.88934,25.0570004 L154.696315,9.39473684 L158.901316,9.39473684 C159.27995,9.39473684 159.607609,9.53308181 159.884303,9.8097759 C160.160997,10.0791886 160.306623,10.4104884 160.321186,10.8036852 L160.277498,11.0658152 L160.277498,11.0658152 L159.403731,16.0025956 C159.279947,16.6870494 158.875834,17.1239283 158.191381,17.3132453 C158.44623,17.4079038 158.639185,17.575374 158.770251,17.815661 C158.872191,18.004978 158.92316,18.2161361 158.92316,18.4491417 C158.92316,18.5001116 158.919519,18.5547215 158.912238,18.6129729 L158.91049,18.7318053 C158.908743,18.7851049 158.905685,18.8292299 158.901316,18.8641807 L157.765419,25.0570004 L155.843133,25.0570004 L156.989952,18.6457391 L156.989952,18.5911287 C156.989952,18.4673445 156.946264,18.3617654 156.858887,18.2743884 C156.77151,18.1870113 156.665931,18.1433234 156.542146,18.1433234 L155.023977,18.1433234 L153.800704,25.0570004 L151.88934,25.0570004 Z M155.362562,16.2756476 L156.880731,16.2756476 C157.040922,16.2756476 157.182908,16.2210378 157.306692,16.1118164 C157.423195,16.0098765 157.496008,15.8824535 157.525134,15.7295436 L158.267835,11.6774517 L158.267835,11.6119192 C158.267835,11.4808536 158.224147,11.3716339 158.13677,11.2842568 C158.042112,11.2041611 157.929251,11.1641139 157.798186,11.1641139 L156.290939,11.1641139 L155.362562,16.2756476 Z M161.904888,9.39473684 L166.153577,9.39473684 L165.847759,11.1422697 L163.48859,11.1422697 L162.603901,16.1118164 L164.952148,16.1118164 L164.624486,17.8593493 L162.287161,17.8593493 L161.315096,23.3094675 L163.630577,23.3094675 L163.313836,25.0570004 L159.065147,25.0570004 L161.904888,9.39473684 Z"/>
  </g>
</svg>
